<?xml version="1.0" encoding="utf-8"?>
<!-- Generator: Adobe Illustrator 23.0.0, SVG Export Plug-In . SVG Version: 6.00 Build 0)  -->
<svg version="1.1" id="Layer_1" xmlns="http://www.w3.org/2000/svg" xmlns:xlink="http://www.w3.org/1999/xlink" x="0px" y="0px"
	 viewBox="0 0 200 100" style="enable-background:new 0 0 200 100;" xml:space="preserve">
<style type="text/css">
	.st0{fill:#18F5BF;}
	.st1{fill:#E2E2E2;}
</style>
<g id="L3_2_">
	<g id="Image_5_">
		<path class="st0" d="M51,91H20c-6.6,0-12-5.4-12-12V20c0-6.6,5.4-12,12-12h31c6.6,0,12,5.4,12,12v59C63,85.6,57.6,91,51,91z"/>
	</g>
	<g id="TextContainer_4_">
		<g>
			<path class="st1" d="M111.7,79.67v1.2c-3.81-0.52-6.9-2.07-9.28-4.63s-3.57-5.41-3.57-8.53c0-1.64,0.26-3.55,0.79-5.73
				c0.52-2.18,0.79-3.87,0.79-5.08c0-1.64-0.69-3.17-2.07-4.6c-1.38-1.42-3.29-2.3-5.73-2.61v-1.4c2.44-0.32,4.35-1.18,5.73-2.6
				c1.38-1.41,2.07-2.95,2.07-4.61c0-1.21-0.26-2.89-0.79-5.06c-0.52-2.16-0.79-4.08-0.79-5.74c0-3.1,1.19-5.94,3.57-8.51
				c2.38-2.57,5.47-4.11,9.28-4.61v1.2c-2.67,0.64-4.62,1.68-5.86,3.13c-1.24,1.45-1.86,3.04-1.86,4.77c0,1.34,0.26,3.12,0.77,5.31
				c0.51,2.2,0.77,4.07,0.77,5.62c0,2.3-0.84,4.53-2.53,6.7c-1.69,2.17-4.2,3.84-7.55,5.02c3.28,1.21,5.78,2.92,7.5,5.13
				c1.72,2.21,2.58,4.47,2.58,6.77c0,1.55-0.26,3.42-0.77,5.62c-0.51,2.2-0.77,3.97-0.77,5.31c0,1.73,0.62,3.32,1.86,4.77
				C107.08,77.96,109.04,79.01,111.7,79.67z"/>
		</g>
		<g>
			<path class="st0" d="M155.46,26.72l0.51,10.87h-1.3c-0.25-1.91-0.59-3.28-1.03-4.1c-0.71-1.32-1.65-2.3-2.82-2.92
				c-1.17-0.63-2.72-0.94-4.63-0.94h-6.53v35.41c0,2.85,0.31,4.63,0.92,5.33c0.87,0.96,2.2,1.44,4,1.44h1.61v1.26h-19.65V71.8h1.64
				c1.96,0,3.35-0.59,4.17-1.78c0.5-0.73,0.75-2.39,0.75-4.99V29.62h-5.57c-2.17,0-3.7,0.16-4.61,0.48c-1.19,0.43-2.2,1.26-3.04,2.5
				c-0.84,1.23-1.34,2.89-1.5,4.99h-1.3l0.55-10.87H155.46z"/>
		</g>
		<g>
			<g>
				<path class="st1" d="M161.01,19.35v-1.2c3.8,0.5,6.9,2.03,9.28,4.6c2.38,2.56,3.57,5.42,3.57,8.56c0,1.64-0.26,3.54-0.79,5.71
					c-0.52,2.17-0.79,3.85-0.79,5.06c0,1.64,0.69,3.17,2.07,4.6c1.38,1.42,3.29,2.3,5.73,2.61v1.4c-2.44,0.32-4.35,1.19-5.73,2.61
					c-1.38,1.42-2.07,2.96-2.07,4.6c0,1.21,0.26,2.9,0.79,5.08c0.52,2.18,0.79,4.08,0.79,5.73c0,3.1-1.19,5.94-3.57,8.51
					c-2.38,2.57-5.48,4.12-9.28,4.65v-1.2c2.67-0.66,4.62-1.71,5.86-3.14c1.24-1.44,1.86-3.03,1.86-4.79c0-1.34-0.26-3.12-0.79-5.31
					c-0.52-2.2-0.79-4.06-0.79-5.59c0-2.32,0.85-4.57,2.55-6.73c1.7-2.16,4.22-3.84,7.57-5.02c-3.28-1.21-5.79-2.92-7.52-5.13
					c-1.73-2.21-2.6-4.47-2.6-6.77c0-1.55,0.26-3.42,0.79-5.62c0.52-2.2,0.79-3.97,0.79-5.31c0-1.73-0.62-3.32-1.86-4.77
					C165.63,21.03,163.67,19.99,161.01,19.35z"/>
			</g>
		</g>
	</g>
</g>
</svg>
