<?xml version="1.0" encoding="utf-8"?>
<!-- Generator: Adobe Illustrator 23.0.0, SVG Export Plug-In . SVG Version: 6.00 Build 0)  -->
<svg version="1.1" id="Layer_1" xmlns="http://www.w3.org/2000/svg" xmlns:xlink="http://www.w3.org/1999/xlink" x="0px" y="0px"
	 viewBox="0 0 200 100" style="enable-background:new 0 0 200 100;" xml:space="preserve">
<style type="text/css">
	.st0{fill:#18F5BF;}
	.st1{fill:#E2E2E2;}
</style>
<g id="L6">
	<g id="Image_4_">
		<path class="st0" d="M180.45,40H19c-6.6,0-12-5.4-12-12v-8c0-6.6,5.4-12,12-12h161.45c6.6,0,12,5.4,12,12v8
			C192.45,34.6,187.05,40,180.45,40z"/>
	</g>
	<g id="TextContainer_3_">
		<g>
			<path class="st1" d="M87.23,91.23V92c-2.44-0.34-4.42-1.33-5.95-2.97c-1.53-1.64-2.29-3.47-2.29-5.47c0-1.05,0.17-2.28,0.5-3.67
				c0.34-1.39,0.5-2.48,0.5-3.25c0-1.05-0.44-2.03-1.33-2.95c-0.88-0.91-2.11-1.47-3.67-1.68v-0.9c1.56-0.2,2.79-0.76,3.67-1.67
				C79.55,68.55,80,67.56,80,66.5c0-0.77-0.17-1.85-0.5-3.24c-0.34-1.39-0.5-2.61-0.5-3.68c0-1.99,0.76-3.81,2.29-5.46
				c1.53-1.65,3.51-2.64,5.95-2.96v0.77c-1.71,0.41-2.96,1.08-3.76,2c-0.8,0.93-1.19,1.95-1.19,3.06c0,0.86,0.16,2,0.49,3.41
				C83.1,61.8,83.26,63,83.26,64c0,1.48-0.54,2.91-1.62,4.29c-1.08,1.39-2.7,2.46-4.84,3.22c2.1,0.77,3.71,1.87,4.81,3.29
				c1.1,1.42,1.65,2.86,1.65,4.34c0,0.99-0.16,2.19-0.49,3.6c-0.33,1.41-0.49,2.55-0.49,3.41c0,1.11,0.4,2.13,1.19,3.06
				C84.26,90.13,85.52,90.81,87.23,91.23z"/>
		</g>
		<g>
			<path class="st0" d="M107.03,60.03l0.27,5.72h-0.68c-0.13-1.01-0.31-1.73-0.54-2.16c-0.37-0.7-0.87-1.21-1.48-1.54
				c-0.62-0.33-1.43-0.49-2.44-0.49h-3.44V80.2c0,1.5,0.16,2.44,0.49,2.81c0.46,0.5,1.16,0.76,2.11,0.76h0.85v0.67H91.81v-0.67h0.86
				c1.03,0,1.76-0.31,2.2-0.94c0.26-0.38,0.4-1.26,0.4-2.63V61.56h-2.93c-1.14,0-1.95,0.08-2.43,0.25c-0.62,0.23-1.16,0.67-1.6,1.31
				c-0.44,0.65-0.71,1.52-0.79,2.63h-0.68l0.29-5.72H107.03z"/>
		</g>
		<g>
			<g>
				<path class="st1" d="M107.29,51.92v-0.77c2.44,0.32,4.42,1.3,5.95,2.95c1.53,1.64,2.29,3.47,2.29,5.49
					c0,1.05-0.17,2.27-0.5,3.66c-0.34,1.39-0.5,2.47-0.5,3.24c0,1.05,0.44,2.03,1.33,2.95c0.88,0.91,2.11,1.47,3.67,1.68v0.9
					c-1.56,0.2-2.79,0.76-3.67,1.68c-0.88,0.91-1.33,1.9-1.33,2.95c0,0.77,0.17,1.86,0.5,3.25c0.34,1.4,0.5,2.62,0.5,3.67
					c0,1.99-0.76,3.81-2.29,5.46c-1.53,1.65-3.51,2.64-5.95,2.98v-0.77c1.71-0.42,2.96-1.1,3.76-2.02c0.8-0.92,1.19-1.94,1.19-3.07
					c0-0.86-0.17-2-0.5-3.41c-0.34-1.41-0.5-2.6-0.5-3.58c0-1.49,0.54-2.93,1.63-4.32c1.09-1.39,2.71-2.46,4.85-3.22
					c-2.1-0.77-3.71-1.87-4.82-3.29c-1.11-1.42-1.67-2.86-1.67-4.34c0-0.99,0.17-2.19,0.5-3.6c0.34-1.41,0.5-2.55,0.5-3.41
					c0-1.11-0.4-2.13-1.19-3.06C110.26,53,109,52.33,107.29,51.92z"/>
			</g>
		</g>
	</g>
</g>
</svg>
