<?xml version="1.0" encoding="utf-8"?>
<!-- Generator: Adobe Illustrator 23.0.0, SVG Export Plug-In . SVG Version: 6.00 Build 0)  -->
<svg version="1.1" id="Layer_1" xmlns="http://www.w3.org/2000/svg" xmlns:xlink="http://www.w3.org/1999/xlink" x="0px" y="0px"
	 viewBox="0 0 200 100" style="enable-background:new 0 0 200 100;" xml:space="preserve">
<style type="text/css">
	.st0{fill:#18F5BF;}
	.st1{fill:#E2E2E2;}
</style>
<g id="L4">
	<g id="Image_1_">
		<path class="st0" d="M137.08,91h31c6.6,0,12-5.4,12-12V20c0-6.6-5.4-12-12-12h-31c-6.6,0-12,5.4-12,12v59
			C125.08,85.6,130.48,91,137.08,91z"/>
	</g>
	<g id="TextContainer_1_">
		<g>
			<path class="st1" d="M82.24,76.51c1.24-1.45,1.86-3.04,1.86-4.77c0-1.34-0.26-3.12-0.77-5.31c-0.51-2.2-0.77-4.07-0.77-5.62
				c0-2.3,0.86-4.56,2.58-6.77c1.72-2.21,4.22-3.92,7.5-5.13c-3.35-1.18-5.87-2.86-7.55-5.02c-1.69-2.16-2.53-4.4-2.53-6.7
				c0-1.55,0.26-3.42,0.77-5.62c0.51-2.2,0.77-3.97,0.77-5.31c0-1.73-0.62-3.32-1.86-4.77c-1.24-1.45-3.2-2.49-5.86-3.13v-1.2
				c3.81,0.5,6.9,2.04,9.28,4.61c2.38,2.58,3.57,5.41,3.57,8.51c0,1.66-0.26,3.58-0.79,5.74c-0.52,2.17-0.79,3.85-0.79,5.06
				c0,1.66,0.69,3.2,2.07,4.61c1.38,1.41,3.29,2.28,5.73,2.6v1.4c-2.44,0.32-4.35,1.19-5.73,2.61c-1.38,1.42-2.07,2.96-2.07,4.6
				c0,1.21,0.26,2.9,0.79,5.08c0.52,2.18,0.79,4.08,0.79,5.73c0,3.12-1.19,5.96-3.57,8.53s-5.47,4.11-9.28,4.63v-1.2
				C79.04,79.01,81,77.96,82.24,76.51z"/>
		</g>
		<g>
			<path class="st0" d="M70.46,26.72L71,37.59h-1.3c-0.16-2.1-0.66-3.76-1.5-4.99c-0.84-1.23-1.86-2.06-3.04-2.5
				c-0.91-0.32-2.45-0.48-4.61-0.48h-5.57v35.41c0,2.6,0.25,4.26,0.75,4.99c0.82,1.19,2.21,1.78,4.17,1.78h1.64v1.26H41.88V71.8
				h1.61c1.8,0,3.13-0.48,4-1.44c0.62-0.71,0.92-2.48,0.92-5.33V29.62h-6.53c-1.91,0-3.46,0.31-4.63,0.94
				c-1.17,0.63-2.11,1.6-2.82,2.92c-0.43,0.82-0.77,2.19-1.03,4.1h-1.3l0.51-10.87H70.46z"/>
		</g>
		<g>
			<g>
				<path class="st1" d="M21.21,22.48c-1.24,1.45-1.86,3.04-1.86,4.77c0,1.34,0.26,3.12,0.79,5.31c0.52,2.2,0.79,4.07,0.79,5.62
					c0,2.3-0.87,4.56-2.6,6.77c-1.73,2.21-4.24,3.92-7.52,5.13c3.35,1.19,5.87,2.86,7.57,5.02c1.7,2.17,2.55,4.41,2.55,6.73
					c0,1.53-0.26,3.39-0.79,5.59c-0.52,2.2-0.79,3.97-0.79,5.31c0,1.75,0.62,3.35,1.86,4.79c1.24,1.44,3.2,2.48,5.86,3.14v1.2
					c-3.8-0.52-6.9-2.07-9.28-4.65c-2.38-2.58-3.57-5.41-3.57-8.51c0-1.64,0.26-3.55,0.79-5.73c0.52-2.18,0.79-3.87,0.79-5.08
					c0-1.64-0.69-3.17-2.07-4.6c-1.38-1.42-3.29-2.3-5.73-2.61v-1.4c2.44-0.32,4.35-1.19,5.73-2.61c1.38-1.42,2.07-2.96,2.07-4.6
					c0-1.21-0.26-2.89-0.79-5.06c-0.52-2.16-0.79-4.07-0.79-5.71c0-3.14,1.19-6,3.57-8.56c2.38-2.56,5.48-4.1,9.28-4.6v1.2
					C24.41,19.99,22.45,21.03,21.21,22.48z"/>
			</g>
		</g>
	</g>
</g>
</svg>
